<?xml version="1.0" standalone="no"?>
<!DOCTYPE svg PUBLIC "-//W3C//DTD SVG 20010904//EN"
 "http://www.w3.org/TR/2001/REC-SVG-20010904/DTD/svg10.dtd">
<svg version="1.0" xmlns="http://www.w3.org/2000/svg"
 width="500.000000pt" height="500.000000pt" viewBox="0 0 500.000000 500.000000"
 preserveAspectRatio="xMidYMid meet">

<g transform="translate(0.000000,500.000000) scale(0.100000,-0.100000)"
fill="#000000" stroke="none">
<path d="M0 3658 l0 -1341 208 6 c114 4 335 11 491 17 280 11 285 11 313 35
16 14 35 25 41 25 11 0 46 42 90 109 41 62 88 175 118 282 17 62 51 166 75
229 24 63 51 146 60 185 34 150 83 255 119 255 6 0 17 16 24 35 18 50 38 58
113 41 35 -8 98 -20 141 -27 98 -15 207 -79 135 -79 -17 0 -19 3 -9 9 8 5 9
11 3 15 -8 5 -21 -3 -69 -44 -7 -6 -13 -8 -13 -5 0 3 -9 1 -20 -5 -22 -12 -28
-32 -7 -25 6 3 18 1 26 -4 23 -15 -86 -169 -115 -163 -20 4 -17 -7 9 -29 l22
-20 -25 7 c-23 6 -24 6 -10 -11 11 -14 12 -17 1 -11 -9 6 -27 -5 -57 -39 -24
-26 -44 -52 -44 -58 0 -6 -3 -7 -6 -4 -4 4 -1 15 6 24 8 10 2 6 -14 -8 -17
-16 -25 -31 -20 -42 3 -9 11 -14 18 -10 6 3 6 1 -1 -8 -19 -20 -16 -27 12 -21
15 2 25 0 25 -7 0 -6 -4 -11 -10 -11 -5 0 -10 -5 -10 -10 0 -13 30 2 54 25 9
9 17 11 21 5 3 -5 2 -10 -3 -10 -6 0 -15 -13 -21 -30 -5 -16 -16 -30 -24 -30
-8 0 -18 -7 -21 -16 -4 -10 -14 -14 -26 -11 -11 3 -20 0 -20 -6 0 -8 -4 -7 -9
2 -7 11 -11 10 -20 -5 -6 -11 -11 -13 -11 -6 0 6 -4 12 -9 12 -5 0 -8 -8 -7
-17 0 -10 -4 -17 -11 -16 -12 3 -87 -124 -135 -227 -64 -136 -93 -301 -74
-412 8 -42 9 -78 4 -84 -5 -7 -2 -16 7 -24 13 -11 15 -8 15 17 0 35 9 47 26
33 8 -8 11 -7 10 2 0 7 4 14 9 15 12 3 7 -88 -5 -101 -6 -5 -15 -4 -25 4 -8 7
-15 9 -15 5 0 -4 -6 -2 -14 4 -11 9 -15 8 -20 -5 -6 -16 -8 -16 -20 1 -13 17
-14 17 -23 1 -7 -12 -25 -19 -54 -22 -24 -2 -107 -9 -184 -15 -167 -13 -218
-23 -258 -51 -34 -24 -155 -60 -307 -91 -58 -12 -107 -24 -110 -28 -6 -7 -58
-18 -150 -30 -69 -10 -82 -12 -148 -23 l-42 -8 0 -904 0 -904 956 0 957 0 -5
253 c-3 138 -3 275 1 302 3 28 3 79 -1 115 -3 36 -3 90 1 120 l6 55 37 -55
c60 -89 128 -172 230 -282 52 -57 113 -123 134 -147 40 -46 105 -81 225 -121
82 -28 165 -28 211 0 33 20 84 28 73 11 -3 -5 -1 -12 5 -16 7 -4 6 -13 -1 -27
-6 -11 -8 -33 -5 -49 4 -22 2 -29 -10 -29 -14 0 -14 -2 0 -16 9 -8 16 -26 16
-39 0 -13 6 -26 13 -28 8 -4 8 -6 0 -6 -6 -1 -9 -10 -6 -21 5 -20 14 -20 1084
-20 l1079 0 0 2500 0 2500 -2500 0 -2500 0 0 -1342z m1480 690 c0 -24 -3 -29
-17 -24 -11 4 -28 -4 -50 -25 -18 -18 -36 -30 -39 -26 -4 3 10 23 30 43 20 20
36 41 36 48 0 6 9 12 20 13 16 1 20 -4 20 -29z m213 -62 c10 -21 27 -40 37
-43 11 -3 17 -9 14 -14 -3 -5 -1 -9 5 -9 5 0 15 -16 22 -35 10 -27 17 -34 31
-29 19 6 25 -10 8 -21 -5 -3 -10 -15 -10 -26 0 -21 -29 -26 -48 -7 -8 8 -8 15
-1 24 7 8 5 24 -5 49 l-16 37 -47 -7 c-27 -4 -52 -8 -58 -8 -14 -3 -6 53 11
77 8 11 14 29 14 39 0 29 23 14 43 -27z m677 31 c0 -6 -14 -18 -30 -25 -17 -8
-35 -22 -40 -32 -8 -15 -3 -18 40 -24 57 -8 62 -20 25 -60 -14 -15 -25 -23
-25 -18 0 5 7 15 15 22 35 29 11 50 -56 50 -47 0 -49 11 -10 40 17 11 33 29
36 40 7 22 45 28 45 7z m900 -7 c0 -5 -4 -10 -10 -10 -5 0 -10 5 -10 10 0 6 5
10 10 10 6 0 10 -4 10 -10z m140 -46 c15 -71 1 -90 -29 -41 -12 19 -28 38 -36
41 -13 4 -14 -2 -9 -37 4 -23 11 -43 15 -45 12 -5 -1 -32 -16 -32 -19 0 -38
27 -25 35 7 4 8 27 4 66 -8 69 2 75 40 24 35 -46 47 -44 40 5 -9 59 3 48 16
-16z m115 46 c3 -6 -2 -13 -12 -17 -10 -3 -26 -13 -35 -21 -10 -8 -18 -12 -18
-8 0 4 8 18 18 31 18 26 37 32 47 15z m-1529 -11 c29 1 55 -2 59 -8 4 -7 -4
-11 -18 -11 -32 0 -37 -15 -30 -94 4 -46 2 -66 -6 -66 -7 0 -11 25 -11 70 0
75 -14 95 -58 83 -15 -4 -22 -1 -22 9 0 20 10 29 23 21 6 -4 34 -5 63 -4z
m162 -76 c-1 -49 -3 -71 -5 -49 -4 35 -6 38 -33 34 -26 -4 -29 -1 -34 35 -8
48 -1 61 9 18 5 -24 12 -31 31 -31 21 0 24 4 24 40 0 22 2 40 5 40 3 0 4 -39
3 -87z m512 66 c0 -11 -4 -18 -9 -14 -5 3 -12 1 -16 -5 -13 -21 -23 -9 -12 15
14 30 37 33 37 4z m518 0 c-11 -6 -18 -32 -24 -91 -6 -73 -8 -79 -15 -48 -5
19 -6 47 -3 61 3 14 0 37 -5 52 -9 24 -13 26 -37 17 -29 -12 -39 -8 -32 12 4
9 24 12 69 10 43 -3 58 -7 47 -13z m-290 -79 c14 -25 32 -50 40 -57 18 -15 8
-45 -13 -37 -8 3 -13 10 -10 14 9 14 -17 59 -36 65 -27 9 -59 -12 -71 -46 -5
-16 -13 -29 -18 -29 -4 0 1 25 11 57 11 31 19 66 19 78 0 51 34 31 78 -45z
m-1345 -13 c0 -43 -3 -80 -5 -83 -3 -2 -8 22 -12 55 -4 33 -12 61 -18 63 -17
6 1 50 20 46 12 -2 15 -18 15 -81z m-92 40 c21 -6 39 -16 39 -20 0 -5 -21 -33
-47 -64 -27 -30 -47 -59 -46 -63 1 -4 -7 -10 -17 -13 -15 -4 -20 0 -20 14 0
10 6 19 14 19 7 0 34 24 60 54 l46 55 -56 7 c-30 3 -66 7 -80 7 -24 0 -30 7
-16 21 8 9 67 1 123 -17z m761 -47 c4 -35 5 -66 3 -69 -10 -9 -18 10 -21 46
-1 21 -2 46 -3 55 -1 12 -6 15 -18 11 -16 -6 -16 -5 -4 10 23 29 36 14 43 -53z
m1053 60 c10 -16 13 -130 3 -130 -4 0 -8 15 -8 33 0 17 -6 43 -13 57 -14 26
-12 50 3 50 5 0 12 -5 15 -10z m222 -10 c18 0 33 -5 33 -11 0 -22 -46 -89 -60
-87 -8 2 -20 23 -27 48 -15 50 -10 81 9 62 7 -7 27 -12 45 -12z m-894 -10 c-5
-18 0 -20 35 -20 23 0 44 -5 47 -11 4 -5 -9 -31 -29 -56 -20 -26 -36 -50 -36
-55 0 -4 -7 -8 -15 -8 -8 0 -15 7 -15 15 0 8 6 15 14 15 8 0 28 20 45 45 l30
45 -61 0 -61 0 23 25 c28 30 30 30 23 5z m361 5 c-4 -10 3 -18 19 -24 14 -5
28 -15 32 -20 3 -6 15 -11 26 -11 10 0 19 -6 19 -13 0 -24 -27 -15 -71 23 -26
22 -40 41 -35 48 10 17 16 15 10 -3z m-433 -17 c-1 -5 -1 -36 -1 -70 0 -45 -3
-59 -10 -48 -5 8 -10 34 -10 58 0 23 -4 42 -10 42 -5 0 -7 7 -3 15 5 16 35 17
34 3z m-918 -75 c-3 -18 -9 -33 -14 -33 -12 0 -11 14 3 45 14 32 17 29 11 -12z
m497 -19 c0 -16 -16 -19 -25 -4 -8 13 4 32 16 25 5 -4 9 -13 9 -21z m210 -4
c-6 -11 -15 -20 -20 -20 -16 0 -11 18 8 29 24 14 24 14 12 -9z m825 -596 c13
-14 22 -31 19 -38 -3 -7 5 -21 16 -31 43 -39 86 -179 60 -195 -18 -11 0 -41
24 -38 17 2 20 -1 18 -20 -2 -13 4 -32 13 -42 9 -10 14 -24 10 -29 -3 -6 -2
-11 3 -11 10 0 25 -37 23 -54 -3 -14 21 -36 39 -36 10 0 20 -10 24 -24 3 -13
9 -32 12 -43 5 -17 4 -17 -10 1 -13 16 -16 17 -16 4 0 -13 -6 -14 -34 -8 -46
10 -49 13 -103 83 -48 62 -85 99 -92 91 -2 -2 3 -12 11 -21 8 -10 21 -32 29
-50 7 -17 17 -29 21 -27 4 3 5 -1 2 -9 -3 -8 2 -17 10 -20 9 -4 16 -13 16 -22
0 -8 4 -15 10 -15 5 0 7 -7 3 -16 -5 -14 -3 -15 15 -5 15 8 22 8 22 1 0 -5 11
-10 24 -10 36 0 47 -21 55 -106 4 -48 12 -79 20 -82 11 -4 28 -36 29 -56 0 -5
4 -12 9 -15 6 -3 24 -37 42 -76 25 -55 77 -162 88 -184 1 -1 7 0 14 4 19 13
79 13 79 1 0 -6 -7 -23 -14 -38 -13 -25 -5 -41 8 -19 3 5 15 11 27 14 16 4 19
2 15 -10 -5 -12 -1 -14 19 -9 14 4 25 2 25 -4 0 -5 12 -10 28 -10 48 0 237
-43 248 -57 7 -8 43 -15 100 -18 73 -4 130 -9 153 -14 2 -1 -2 -7 -8 -14 -14
-18 -4 -27 27 -27 14 0 44 -11 68 -25 23 -14 48 -23 56 -20 7 3 18 -6 25 -22
15 -32 11 -38 -16 -23 -22 11 -25 8 -22 -22 1 -10 -3 -18 -8 -18 -6 0 -11 7
-11 15 0 18 -20 20 -21 3 0 -10 -2 -10 -6 0 -6 15 -57 16 -84 2 -14 -8 -19 -7
-19 2 -1 8 -6 6 -15 -5 -7 -11 -32 -21 -54 -24 -23 -3 -44 -9 -47 -14 -2 -5
-15 -4 -28 1 -15 5 -47 4 -87 -4 -35 -7 -71 -13 -79 -13 -8 -1 -69 -4 -136 -8
-120 -8 -197 1 -252 27 -27 14 -76 94 -68 113 3 8 0 16 -7 18 -8 3 -7 10 6 24
23 26 22 32 -5 25 l-22 -5 23 32 24 33 -24 -4 c-21 -3 -24 0 -21 27 2 17 8 34
13 40 16 16 10 26 -11 15 -17 -9 -20 -7 -26 15 -3 14 -10 25 -16 25 -5 0 -7 3
-4 8 2 4 -2 18 -10 32 -8 15 -14 19 -14 10 0 -11 -4 -10 -16 5 -15 19 -15 18
-10 -20 6 -37 5 -38 -6 -15 -12 23 -19 26 -45 21 -5 -1 -2 -5 4 -9 17 -11 29
-167 14 -176 -6 -4 -11 -36 -11 -74 0 -74 17 -76 22 -2 2 25 6 38 10 30 18
-47 48 -200 38 -200 -3 0 -4 -71 -3 -157 2 -140 1 -155 -11 -133 -14 23 -14
21 -14 -40 0 -217 -4 -330 -14 -336 -7 -5 -9 7 -4 37 3 24 2 51 -4 59 -7 11
-10 7 -10 -17 0 -18 -4 -33 -9 -33 -5 0 -12 51 -15 113 -11 168 -10 167 -18
167 -8 0 -13 -72 -9 -124 2 -18 -1 -26 -8 -21 -7 4 -11 -4 -11 -21 0 -30 -14
-112 -35 -213 -11 -51 -12 -68 -2 -80 11 -14 10 -14 -5 -2 -13 10 -18 29 -19
70 -1 31 -4 46 -6 34 -5 -26 -23 -31 -23 -8 0 8 -4 15 -10 15 -5 0 -10 -7 -10
-15 0 -8 -4 -15 -10 -15 -5 0 -6 -7 -3 -17 4 -11 3 -14 -5 -9 -7 4 -13 4 -13
-1 -1 -4 -3 -21 -5 -36 -1 -16 -7 -43 -12 -60 -5 -18 -10 -43 -10 -57 -2 -67
-14 -129 -28 -134 -11 -4 -14 8 -16 62 0 37 -1 74 0 82 3 44 34 271 43 310 8
38 23 150 44 328 3 31 1 41 -7 36 -7 -5 -8 -3 -3 6 5 8 10 25 12 39 8 67 16
92 29 87 8 -3 11 0 7 10 -3 7 0 14 7 14 7 0 10 6 7 13 -2 7 -1 34 3 60 5 35 4
50 -5 53 -14 6 -12 36 4 77 7 17 7 26 1 22 -6 -4 -11 11 -12 37 -1 35 -3 31
-8 -22 -6 -60 -7 -62 -8 -18 -2 53 -18 60 -40 18 l-12 -25 6 25 c10 38 5 100
-11 148 -8 23 -15 61 -15 83 0 24 -4 38 -10 34 -5 -3 -10 -1 -10 5 0 6 -4 8
-10 5 -5 -3 -10 -17 -10 -30 0 -13 -4 -26 -9 -29 -4 -3 -14 -33 -20 -66 -7
-34 -18 -63 -26 -66 -7 -3 -19 -25 -26 -50 -7 -24 -17 -44 -21 -44 -4 0 -8 -8
-8 -17 0 -15 -2 -16 -10 -3 -9 13 -11 13 -20 0 -8 -11 -9 -8 -4 13 3 15 2 27
-2 27 -5 0 -10 17 -11 38 -1 28 0 32 7 17 8 -19 9 -19 9 3 1 12 -4 22 -9 22
-13 0 -52 -89 -44 -101 3 -5 0 -9 -5 -9 -6 0 -11 -6 -11 -12 0 -7 -8 -22 -17
-33 -15 -19 -15 -19 -9 7 5 22 3 25 -13 21 -17 -4 -19 0 -16 31 2 20 -1 36 -5
36 -8 0 -25 -48 -22 -62 1 -5 -3 -8 -8 -8 -6 0 -10 6 -10 13 -1 6 -6 2 -13
-11 -15 -26 -64 -55 -78 -46 -6 3 -15 1 -22 -4 -7 -5 -41 -17 -76 -26 -100
-25 -170 -92 -171 -163 -2 -124 6 -157 34 -134 9 8 16 26 16 40 0 34 34 67 80
76 19 4 46 16 59 26 24 19 24 19 58 -7 45 -34 91 -41 134 -18 35 18 69 24 69
11 0 -4 0 -12 0 -17 0 -16 -80 -50 -117 -50 -18 0 -33 -4 -33 -9 0 -13 25 -20
49 -14 12 3 27 0 35 -6 11 -9 15 -9 19 1 3 10 7 10 17 1 10 -9 19 -9 41 2 15
8 30 11 33 6 3 -5 -1 -12 -10 -15 -9 -4 -14 -9 -11 -13 10 -10 37 18 37 38 0
12 7 19 19 19 11 0 21 4 23 9 5 16 61 22 90 10 25 -10 31 -20 48 -79 4 -14 11
-32 14 -41 5 -12 1 -18 -15 -22 -14 -4 -20 -11 -16 -21 4 -11 -3 -21 -22 -31
-16 -8 -31 -22 -35 -31 -4 -10 -12 -14 -22 -10 -19 7 -47 -12 -38 -26 3 -5 -4
-12 -16 -15 -11 -3 -19 -11 -16 -18 2 -6 -4 -18 -14 -25 -11 -8 -17 -17 -14
-22 3 -4 -1 -8 -9 -8 -8 0 -18 -12 -21 -26 -4 -15 -12 -24 -20 -21 -7 3 -18
-4 -24 -14 -10 -15 -9 -19 0 -19 7 -1 1 -8 -14 -16 -16 -8 -28 -21 -28 -29 0
-8 -4 -15 -10 -15 -5 0 -18 -10 -29 -22 -15 -15 -18 -25 -10 -34 7 -9 4 -16
-11 -27 -15 -10 -17 -16 -9 -19 8 -3 0 -12 -19 -23 -18 -11 -34 -27 -37 -36
-7 -22 -76 -69 -102 -69 -16 0 -26 13 -43 55 -22 53 -21 86 1 55 8 -12 10 -10
6 7 -4 17 2 28 23 43 15 11 33 20 39 20 6 0 11 9 11 21 0 11 -4 18 -9 14 -10
-5 -51 115 -51 148 0 8 -7 18 -17 21 -15 6 -14 8 2 20 18 13 18 14 -4 26 -16
8 -20 15 -13 22 8 8 6 15 -4 25 -8 8 -14 20 -14 26 0 7 7 3 15 -7 11 -14 15
-16 15 -5 0 20 -37 41 -61 34 -14 -5 -19 -1 -20 12 0 10 -3 13 -5 6 -3 -7 0
-22 7 -35 7 -12 14 -35 15 -50 3 -22 0 -26 -14 -21 -16 7 -16 6 0 -19 17 -25
17 -26 -13 -32 -16 -3 -29 -12 -29 -20 0 -7 -13 -19 -30 -26 -16 -7 -32 -21
-36 -32 -3 -12 -9 -16 -13 -11 -3 6 -15 7 -26 3 -12 -4 -38 0 -65 12 -82 35
-136 6 -108 -58 25 -59 75 -93 93 -64 3 6 13 10 22 10 9 0 24 7 34 16 16 14
18 14 24 -5 3 -12 16 -21 33 -23 21 -2 26 -8 24 -23 -2 -11 -5 -38 -5 -60 -2
-28 -7 -41 -18 -43 -14 -2 -15 -7 -5 -27 6 -14 18 -25 27 -25 17 0 52 43 63
78 11 35 23 26 30 -23 9 -54 1 -85 -22 -86 -9 0 -39 -3 -66 -5 -28 -3 -71 0
-98 5 -57 13 -108 5 -108 -17 0 -23 -122 -8 -186 23 -84 41 -169 139 -245 282
-9 18 -19 29 -23 26 -3 -4 -6 3 -6 15 0 12 -3 22 -7 22 -27 0 -67 241 -56 341
6 64 33 103 55 81 19 -19 48 -14 80 13 37 31 42 31 56 1 19 -43 56 -60 105
-50 30 7 41 14 39 25 -1 9 5 22 13 29 12 10 15 10 15 0 0 -9 4 -9 13 -2 8 6
35 6 81 0 37 -5 71 -6 75 -3 10 11 -38 44 -80 55 -45 12 -51 22 -11 20 45 -3
51 -1 47 18 -1 10 7 34 19 54 19 32 24 35 40 23 12 -9 26 -11 44 -5 15 5 39
11 55 14 15 4 27 13 27 22 0 9 6 14 13 11 17 -6 97 67 97 88 0 12 -4 13 -19 5
-29 -15 -41 -12 -34 8 6 15 4 15 -15 -2 -22 -19 -22 -19 -22 0 0 11 4 24 9 29
16 18 22 63 8 68 -9 4 -9 8 2 15 9 7 10 12 2 16 -6 4 -11 18 -11 32 0 13 -3
24 -7 24 -5 0 -7 89 -6 197 1 113 -1 192 -6 184 -6 -9 -10 1 -13 30 -2 24 -1
45 4 47 12 5 30 81 22 94 -4 7 -3 8 4 4 14 -9 14 -9 3 32 -6 20 -6 32 0 32 5
0 9 11 9 25 0 29 15 33 28 8 8 -13 11 -7 17 28 l8 44 19 -50 c11 -28 22 -52
24 -54 3 -3 3 28 0 68 -2 40 -7 75 -10 79 -10 9 -7 24 4 17 6 -4 10 13 10 44
0 44 4 52 29 71 17 11 33 29 36 40 4 11 13 20 20 20 16 0 50 -64 41 -79 -4 -5
1 -14 10 -19 12 -7 15 -18 12 -40 -2 -17 -1 -29 4 -26 4 3 8 0 8 -6 0 -7 9
-24 20 -40 11 -15 17 -30 14 -33 -3 -3 -1 -8 5 -12 6 -3 11 0 11 7 0 8 5 6 11
-4 5 -10 17 -18 24 -18 9 0 15 -10 15 -22 0 -13 9 -41 19 -63 l19 -40 2 35 c1
33 2 33 12 13 6 -13 15 -23 19 -23 4 0 13 -17 19 -37 22 -72 20 -69 30 -53 15
24 -1 112 -32 177 -29 63 -30 83 -2 83 19 0 18 39 -1 46 -8 4 -15 12 -15 19 0
7 -11 21 -25 31 -14 10 -25 24 -25 31 0 7 -9 22 -21 34 -11 11 -18 27 -15 35
3 7 -2 17 -11 22 -11 7 -4 11 27 15 24 3 46 9 49 14 3 4 21 10 40 11 31 3 50
-2 104 -29 21 -11 110 32 177 85 53 43 82 45 115 10z m-428 -24 c-1 -11 -11
-21 -24 -25 -13 -3 -21 -10 -18 -15 8 -12 -32 -23 -61 -16 -13 4 -24 2 -24 -3
0 -5 -8 -8 -17 -7 -10 0 -18 -6 -18 -14 0 -8 6 -14 13 -12 8 1 11 -2 7 -8 -11
-19 -42 -10 -53 15 -10 21 -9 26 8 35 10 5 27 7 37 4 15 -5 15 -4 3 5 -13 10
-8 15 13 12 4 0 7 3 7 9 0 15 46 35 89 37 34 2 39 0 38 -17z m-690 -46 c-3 -3
-12 -4 -19 -1 -8 3 -5 6 6 6 11 1 17 -2 13 -5z m-40 -10 c-3 -3 -12 -4 -19 -1
-8 3 -5 6 6 6 11 1 17 -2 13 -5z m-2 -23 c-11 -5 -36 -11 -55 -15 l-35 -6 30
14 c17 8 41 14 55 15 22 0 23 -1 5 -8z m342 -288 c-3 -10 -5 -4 -5 12 0 17 2
24 5 18 2 -7 2 -21 0 -30z m-619 -17 c-7 -8 -15 -12 -17 -11 -5 6 10 25 20 25
5 0 4 -6 -3 -14z m43 -37 c-12 -19 -21 -28 -21 -21 0 15 31 64 37 58 2 -2 -5
-19 -16 -37z m69 -14 c-7 -9 -15 -13 -19 -10 -3 3 1 10 9 15 21 14 24 12 10
-5z m-49 -34 c-7 -5 -10 -14 -7 -20 4 -6 0 -11 -8 -11 -19 0 -21 26 -3 33 20
9 33 7 18 -2z m-90 -165 c-6 -14 -15 -26 -21 -26 -7 0 -4 13 6 30 21 35 29 33
15 -4z m-84 -18 c-3 -8 -6 -5 -6 6 -1 11 2 17 5 13 3 -3 4 -12 1 -19z m650
-45 c-3 -10 -5 -2 -5 17 0 19 2 27 5 18 2 -10 2 -26 0 -35z m-82 -69 c-1 -15
2 -21 11 -17 8 3 14 14 14 26 0 30 9 16 15 -25 5 -30 3 -36 -15 -41 -11 -3
-20 -1 -20 4 0 5 -5 8 -12 7 -12 -3 -13 6 -9 67 1 22 4 26 10 16 5 -8 8 -24 6
-37z m95 36 c0 -5 -5 -10 -11 -10 -5 0 -7 5 -4 10 3 6 8 10 11 10 2 0 4 -4 4
-10z m-696 -74 c-26 -40 -36 -31 -12 11 12 20 24 31 26 25 2 -6 -4 -22 -14
-36z m528 15 c-6 -3 -12 -20 -15 -36 -4 -28 -4 -28 -6 6 -1 38 6 52 21 42 7
-3 6 -8 0 -12z m158 -7 c0 -14 -4 -23 -9 -20 -5 3 -7 15 -4 26 7 28 13 25 13
-6z m-263 -11 c-10 -22 -13 -24 -15 -9 -2 10 2 22 10 27 19 12 19 12 5 -18z
m-33 -52 c-6 -26 -9 -30 -16 -18 -11 20 1 72 13 60 5 -5 6 -24 3 -42z m-42
-13 c-7 -7 -12 -8 -12 -2 0 14 12 26 19 19 2 -3 -1 -11 -7 -17z m-206 -8 c16
0 16 -2 8 -24 -5 -13 -8 -13 -20 -1 -8 7 -14 22 -13 32 0 10 3 13 6 6 2 -7 11
-13 19 -13z m-46 -7 c0 -8 -5 -13 -12 -11 -18 6 -21 25 -3 25 8 0 15 -7 15
-14z m127 -15 c-3 -8 -6 -5 -6 6 -1 11 2 17 5 13 3 -3 4 -12 1 -19z m43 13 c0
-6 -4 -13 -10 -16 -5 -3 -10 1 -10 9 0 9 5 16 10 16 6 0 10 -4 10 -9z m74 -35
c-6 -16 -8 -17 -16 -2 -11 19 0 42 13 29 6 -6 7 -18 3 -27z m-340 -11 c-4 -8
-8 -15 -10 -15 -2 0 -4 7 -4 15 0 8 4 15 10 15 5 0 7 -7 4 -15z m243 9 c-3 -3
-12 -4 -19 -1 -8 3 -5 6 6 6 11 1 17 -2 13 -5z m67 -10 c5 -14 4 -15 -9 -4
-17 14 -19 20 -6 20 5 0 12 -7 15 -16z m-377 -106 c-3 -8 -6 -5 -6 6 -1 11 2
17 5 13 3 -3 4 -12 1 -19z m1902 -53 c0 -5 -4 -3 -9 5 -5 8 -9 22 -9 30 0 16
17 -16 18 -35z m-2042 -57 c-3 -7 -5 -2 -5 12 0 14 2 19 5 13 2 -7 2 -19 0
-25z m1984 -71 c-10 -9 -11 -8 -5 6 3 10 9 15 12 12 3 -3 0 -11 -7 -18z
m-1977 -19 c7 -29 8 -63 0 -55 -3 3 -9 22 -14 41 -9 39 4 51 14 14z m1426
-153 c0 -20 -6 -25 -37 -30 -21 -4 -47 -9 -58 -12 -18 -5 -18 -3 4 21 14 14
32 26 42 26 10 0 21 5 24 10 11 18 25 10 25 -15z m-895 -60 c14 -6 -18 -11
-100 -15 -146 -8 -161 -1 -92 43 20 13 37 16 62 11 23 -4 35 -2 35 5 0 6 17 1
38 -12 20 -13 46 -27 57 -32z m-25 -75 c0 -5 -4 -10 -10 -10 -5 0 -10 5 -10
10 0 6 5 10 10 10 6 0 10 -4 10 -10z m42 -32 c-7 -7 -12 -8 -12 -2 0 6 3 14 7
17 3 4 9 5 12 2 2 -3 -1 -11 -7 -17z m-78 -14 c3 -8 2 -12 -4 -9 -6 3 -10 10
-10 16 0 14 7 11 14 -7z m34 -20 c-4 -3 -12 5 -18 18 -12 22 -12 22 6 6 10
-10 15 -20 12 -24z m1304 -629 c-6 -34 -12 -32 -12 6 0 16 4 28 9 25 4 -3 6
-17 3 -31z m-1261 -206 c16 -11 27 -25 24 -29 -10 -16 48 -23 92 -12 64 17
133 16 133 -3 0 -8 5 -15 10 -15 6 0 10 6 10 14 0 8 7 17 16 20 14 5 15 4 4
-9 -7 -8 -9 -15 -4 -15 5 0 3 -4 -4 -9 -10 -6 -11 -13 -4 -27 6 -11 13 -27 16
-37 3 -10 10 -15 16 -12 5 3 10 1 10 -4 0 -6 3 -11 8 -11 10 0 52 82 52 103 0
18 8 21 33 11 12 -4 13 -13 5 -42 -29 -108 -168 -127 -168 -23 l0 36 -16 -30
c-11 -22 -14 -44 -9 -83 4 -30 9 -51 12 -48 7 7 63 -50 63 -63 0 -15 46 -59
70 -66 30 -10 24 -25 -11 -25 -20 0 -28 4 -23 12 5 8 2 9 -11 4 -19 -7 -64 16
-78 41 -8 13 -39 19 -35 6 7 -21 -40 -8 -59 16 -7 9 -13 22 -13 29 0 7 -7 20
-15 29 -8 8 -14 18 -12 21 4 8 -30 42 -40 41 -4 0 -9 4 -11 10 -2 6 4 11 13
11 9 0 14 4 11 9 -3 5 -15 7 -26 4 -14 -4 -20 0 -20 10 0 9 -9 21 -20 27 -11
6 -20 15 -20 20 0 5 -11 20 -25 34 -24 24 -32 55 -18 69 9 10 12 9 44 -14z
m624 -69 c3 -5 -1 -10 -10 -10 -9 0 -13 5 -10 10 3 6 8 10 10 10 2 0 7 -4 10
-10z m-95 -30 c0 -5 -4 -10 -10 -10 -5 0 -10 5 -10 10 0 6 5 10 10 10 6 0 10
-4 10 -10z m52 -10 c-25 -24 -32 -25 -32 -6 0 15 14 24 39 25 10 1 8 -5 -7
-19z m-19 -82 c-4 -24 -10 -46 -16 -49 -5 -4 -7 -14 -4 -23 4 -10 1 -16 -8
-16 -8 0 -15 -5 -15 -12 0 -18 -51 -68 -69 -68 -10 0 -3 10 18 27 41 32 65 85
62 138 -1 30 1 36 8 25 9 -13 11 -13 11 3 0 9 4 17 9 17 5 0 7 -19 4 -42z
m606 -592 c-9 -8 -10 -5 -5 14 3 14 7 34 7 45 1 11 4 5 6 -14 3 -19 -1 -39 -8
-45z"/>
<path d="M1652 4258 c-7 -28 -6 -33 11 -36 31 -6 43 13 27 43 -18 33 -28 32
-38 -7z"/>
<path d="M2830 4230 c0 -31 6 -36 28 -21 12 7 12 12 1 30 -19 29 -29 26 -29
-9z"/>
<path d="M3451 4218 c1 -7 4 -24 8 -37 l7 -25 26 29 c15 16 25 32 22 37 -8 13
-64 9 -63 -4z"/>
<path d="M2768 3430 c-17 -19 -17 -20 18 -35 20 -8 47 -12 60 -9 l24 6 -24 19
c-13 10 -31 19 -39 19 -9 0 -17 5 -19 10 -2 6 -11 1 -20 -10z"/>
<path d="M2721 3314 c0 -11 3 -14 6 -6 3 7 2 16 -1 19 -3 4 -6 -2 -5 -13z"/>
<path d="M3045 3264 c-46 -38 -50 -41 -65 -46 -9 -3 -2 -8 17 -12 18 -4 35
-12 38 -17 4 -5 18 -9 33 -9 15 0 39 -6 54 -14 24 -13 28 -12 43 4 23 25 11
40 -30 38 -46 -2 -68 18 -61 54 3 15 4 28 3 28 -1 0 -15 -12 -32 -26z"/>
<path d="M2770 3167 c0 -9 5 -17 10 -17 6 0 10 -8 11 -17 0 -11 3 -13 6 -6 2
7 -3 23 -11 35 -13 18 -16 19 -16 5z"/>
<path d="M2993 3005 c4 -9 7 -21 7 -26 0 -5 7 -9 15 -9 8 0 15 -4 15 -10 0 -5
5 -10 11 -10 6 0 25 -11 41 -25 31 -26 51 -26 42 0 -4 8 -10 12 -15 9 -5 -3
-9 2 -9 11 0 9 -4 14 -9 11 -5 -3 -12 5 -15 18 -3 14 -16 28 -29 31 -61 18
-60 18 -54 0z"/>
<path d="M3301 2534 c0 -11 3 -14 6 -6 3 7 2 16 -1 19 -3 4 -6 -2 -5 -13z"/>
<path d="M3296 2112 c4 -101 14 -136 25 -87 11 52 9 93 -5 108 -8 8 -17 27
-20 43 -2 16 -3 -13 0 -64z"/>
<path d="M3279 1942 c-2 -56 -1 -102 2 -102 10 0 16 140 8 175 -4 19 -8 -6
-10 -73z"/>
<path d="M2635 1860 c-3 -5 -1 -10 4 -10 6 0 11 5 11 10 0 6 -2 10 -4 10 -3 0
-8 -4 -11 -10z"/>
<path d="M3351 1804 c0 -11 3 -14 6 -6 3 7 2 16 -1 19 -3 4 -6 -2 -5 -13z"/>
<path d="M3270 1764 c0 -26 3 -44 6 -41 11 11 14 76 3 82 -5 4 -9 -14 -9 -41z"/>
<path d="M3130 1766 c0 -20 2 -36 4 -36 8 0 12 61 4 66 -4 3 -8 -11 -8 -30z"/>
<path d="M2365 1771 c-7 -12 0 -16 48 -29 44 -12 49 1 7 23 -34 17 -47 19 -55
6z"/>
<path d="M2116 865 c-9 -26 -7 -32 5 -12 6 10 9 21 6 23 -2 3 -7 -2 -11 -11z"/>
<path d="M1710 3279 c-12 -21 -13 -21 -76 -3 -19 5 -21 2 -19 -33 2 -36 4 -38
40 -41 27 -2 41 1 47 12 5 9 14 16 21 16 7 0 12 15 13 35 1 39 -10 45 -26 14z"/>
<path d="M1565 2949 c-4 -6 -5 -13 -2 -16 7 -7 27 6 27 18 0 12 -17 12 -25 -2z"/>
<path d="M1540 2910 c0 -5 5 -10 11 -10 5 0 7 5 4 10 -3 6 -8 10 -11 10 -2 0
-4 -4 -4 -10z"/>
</g>
</svg>
